<?xml version="1.0" encoding="UTF-8"?>
<svg width="156px" height="61px" viewBox="0 0 156 61" version="1.1" xmlns="http://www.w3.org/2000/svg" xmlns:xlink="http://www.w3.org/1999/xlink">
    <!-- Generator: Sketch 55.2 (78181) - https://sketchapp.com -->
    <title>Group 14</title>
    <desc>Created with Sketch.</desc>
    <g id="Page-2" stroke="none" stroke-width="1" fill="none" fill-rule="evenodd">
        <g id="1-copy-24" transform="translate(-657.000000, -649.000000)" fill="#2C8CFF">
            <g id="Group-14" transform="translate(657.000000, 649.000000)">
                <circle id="Oval-Copy-77" cx="40" cy="2" r="2"></circle>
                <circle id="Oval-Copy-79" cx="40" cy="21" r="2"></circle>
                <circle id="Oval-Copy-87" cx="40" cy="40" r="2"></circle>
                <circle id="Oval-Copy-88" cx="40" cy="59" r="2"></circle>
                <circle id="Oval-Copy-89" cx="21" cy="2" r="2"></circle>
                <circle id="Oval-Copy-96" cx="154" cy="2" r="2"></circle>
                <circle id="Oval-Copy-97" cx="21" cy="21" r="2"></circle>
                <circle id="Oval-Copy-98" cx="154" cy="21" r="2"></circle>
                <circle id="Oval-Copy-99" cx="21" cy="40" r="2"></circle>
                <circle id="Oval-Copy-100" cx="21" cy="59" r="2"></circle>
                <circle id="Oval-Copy-106" cx="154" cy="40" r="2"></circle>
                <circle id="Oval-Copy-110" cx="154" cy="59" r="2"></circle>
                <circle id="Oval-Copy-107" cx="2" cy="2" r="2"></circle>
                <circle id="Oval-Copy-108" cx="135" cy="2" r="2"></circle>
                <circle id="Oval-Copy-109" cx="2" cy="21" r="2"></circle>
                <circle id="Oval-Copy-116" cx="135" cy="21" r="2"></circle>
                <circle id="Oval-Copy-117" cx="2" cy="40" r="2"></circle>
                <circle id="Oval-Copy-120" cx="2" cy="59" r="2"></circle>
                <circle id="Oval-Copy-118" cx="135" cy="40" r="2"></circle>
                <circle id="Oval-Copy-121" cx="135" cy="59" r="2"></circle>
                <circle id="Oval-Copy-126" cx="116" cy="2" r="2"></circle>
                <circle id="Oval-Copy-128" cx="116" cy="21" r="2"></circle>
                <circle id="Oval-Copy-136" cx="116" cy="40" r="2"></circle>
                <circle id="Oval-Copy-138" cx="116" cy="59" r="2"></circle>
                <circle id="Oval-Copy-137" cx="59" cy="2" r="2"></circle>
                <circle id="Oval-Copy-139" cx="59" cy="21" r="2"></circle>
                <circle id="Oval-Copy-141" cx="59" cy="40" r="2"></circle>
                <circle id="Oval-Copy-142" cx="59" cy="59" r="2"></circle>
                <circle id="Oval-Copy-143" cx="78" cy="2" r="2"></circle>
                <circle id="Oval-Copy-145" cx="78" cy="21" r="2"></circle>
                <circle id="Oval-Copy-147" cx="78" cy="40" r="2"></circle>
                <circle id="Oval-Copy-148" cx="78" cy="59" r="2"></circle>
                <circle id="Oval-Copy-149" cx="97" cy="2" r="2"></circle>
                <circle id="Oval-Copy-151" cx="97" cy="21" r="2"></circle>
                <circle id="Oval-Copy-153" cx="97" cy="40" r="2"></circle>
                <circle id="Oval-Copy-154" cx="97" cy="59" r="2"></circle>
            </g>
        </g>
    </g>
</svg>