<?xml version="1.0" encoding="utf-8"?>
<!-- Generator: Adobe Illustrator 16.0.0, SVG Export Plug-In . SVG Version: 6.00 Build 0)  -->
<!DOCTYPE svg PUBLIC "-//W3C//DTD SVG 1.1//EN" "http://www.w3.org/Graphics/SVG/1.1/DTD/svg11.dtd">
<svg version="1.1" id="Layer_1" xmlns="http://www.w3.org/2000/svg" xmlns:xlink="http://www.w3.org/1999/xlink" x="0px" y="0px"
	 width="222px" height="184px" viewBox="0 0 222 184" enable-background="new 0 0 222 184" xml:space="preserve">
<title>element</title>
<desc>Created with Sketch.</desc>
<path fill-rule="evenodd" clip-rule="evenodd" fill="#09C269" d="M206.423,0H76.566C67.964,0,60.99,6.823,60.99,15.239V86.7v3.686
	v40.232l23.925-24.993h121.507c8.604,0,15.577-6.823,15.577-15.239V15.239C222,6.823,215.026,0,206.423,0z"/>
<g>
	<g>
		<path fill="#FAFAFA" d="M138.403,86.812h0.921h4.345h0.92c1.173,0,2.121-0.947,2.121-2.12c0-1.17-0.948-2.119-2.121-2.119h-0.92
			h-4.345h-0.921c-1.175,0-2.121,0.949-2.121,2.119C136.282,85.865,137.229,86.812,138.403,86.812z"/>
	</g>
	<g>
		<path fill="#FAFAFA" d="M137.367,80.837h0.917h6.423h0.918c1.176,0,2.124-0.949,2.124-2.119c0-1.172-0.948-2.119-2.124-2.119
			h-0.918h-6.423h-0.917c-1.173,0-2.122,0.947-2.122,2.119C135.245,79.888,136.194,80.837,137.367,80.837z"/>
	</g>
	<g>
		<path fill="#FAFAFA" d="M128.317,53.069c0.015,0.085,0.056,0.163,0.072,0.246c0.175,0.786,0.399,1.559,0.708,2.299
			c0.005,0.007,0.005,0.016,0.007,0.024c0.009,0.014,0.024,0.023,0.026,0.039c0.666,1.559,1.621,3,2.863,4.231
			c3.403,3.4,5.307,7.883,5.45,12.669c0,0.028-0.014,0.048-0.014,0.074c0,1.172,0.946,2.119,2.122,2.119h0.914h2.036h0.914
			c1.175,0,2.123-0.947,2.123-2.119c0.129-4.812,2.039-9.324,5.461-12.743c1.239-1.231,2.195-2.672,2.862-4.231
			c0.003-0.016,0.019-0.025,0.022-0.039c0.005-0.009,0.005-0.017,0.013-0.024c0.305-0.74,0.531-1.513,0.706-2.299
			c0.019-0.083,0.058-0.16,0.075-0.246c0.171-0.869,0.264-1.762,0.264-2.668c0-7.415-6.028-13.444-13.445-13.444
			c-7.419,0-13.449,6.029-13.449,13.444C128.049,51.307,128.143,52.2,128.317,53.069z M141.498,41.195
			c5.069,0,9.199,4.134,9.199,9.206c0,1.152-0.229,2.267-0.632,3.313c-0.028,0.069-0.037,0.148-0.067,0.217
			c-0.461,1.104-1.131,2.112-1.995,2.979c-3.624,3.626-5.865,8.26-6.505,13.264c-0.641-5.004-2.885-9.638-6.506-13.264
			c-0.866-0.866-1.536-1.875-2-2.979c-0.027-0.074-0.036-0.148-0.066-0.222c-0.402-1.046-0.63-2.156-0.63-3.309
			C132.296,45.329,136.426,41.195,141.498,41.195z"/>
	</g>
	<g>
		<g>
			<g>
				<path fill="#FAFAFA" d="M111.059,51.496h0.918h6.42h0.919c1.175,0,2.124-0.951,2.124-2.122c0-1.169-0.949-2.121-2.124-2.121
					h-0.919h-6.42h-0.918c-1.174,0-2.121,0.952-2.121,2.121C108.938,50.545,109.885,51.496,111.059,51.496z"/>
			</g>
			<g>
				<path fill="#FAFAFA" d="M163.675,51.496h0.917h6.42h0.92c1.174,0,2.121-0.951,2.121-2.122c0-1.169-0.947-2.121-2.121-2.121
					h-0.92h-6.42h-0.917c-1.175,0-2.127,0.952-2.127,2.121C161.548,50.545,162.5,51.496,163.675,51.496z"/>
			</g>
		</g>
		<g>
			<g>
				<path fill="#FAFAFA" d="M139.377,18.937v0.92v6.418v0.919c0,1.173,0.95,2.124,2.115,2.124c1.176,0,2.124-0.951,2.124-2.124
					v-0.919v-6.418v-0.92c0-1.176-0.948-2.125-2.124-2.125C140.327,16.812,139.377,17.761,139.377,18.937z"/>
			</g>
		</g>
		<g>
			<g>
				<g>
					<path fill="#FAFAFA" d="M161.521,26.349L160.87,27l-4.536,4.542l-0.651,0.647c-0.832,0.83-0.832,2.175-0.006,2.998
						c0.83,0.831,2.175,0.831,3.005,0l0.647-0.648l4.538-4.538l0.653-0.651c0.829-0.832,0.829-2.171,0-3.001
						C163.693,25.52,162.352,25.52,161.521,26.349z"/>
				</g>
			</g>
			<g>
				<g>
					<path fill="#FAFAFA" d="M124.316,63.555l-0.651,0.65l-4.539,4.541l-0.649,0.648c-0.83,0.83-0.83,2.171-0.004,3.001
						c0.828,0.829,2.172,0.829,3,0l0.651-0.651l4.54-4.539l0.649-0.65c0.829-0.829,0.829-2.171,0-3.003
						C126.486,62.725,125.146,62.725,124.316,63.555z"/>
				</g>
			</g>
		</g>
		<g>
			<g>
				<g>
					<path fill="#FAFAFA" d="M164.521,69.394l-0.653-0.648l-4.538-4.541l-0.647-0.65c-0.83-0.83-2.175-0.83-2.997-0.002
						c-0.829,0.832-0.829,2.174,0,3.003l0.649,0.65l4.536,4.539l0.651,0.651c0.832,0.829,2.172,0.829,3.002,0
						C165.35,71.565,165.35,70.224,164.521,69.394z"/>
				</g>
			</g>
			<g>
				<g>
					<path fill="#FAFAFA" d="M127.314,32.189l-0.65-0.647L122.124,27l-0.647-0.652c-0.829-0.829-2.176-0.829-3,0
						c-0.83,0.83-0.83,2.169,0,3.001l0.651,0.651l4.537,4.538l0.651,0.648c0.829,0.831,2.17,0.831,3.003,0
						C128.147,34.364,128.147,33.02,127.314,32.189z"/>
				</g>
			</g>
		</g>
	</g>
</g>
</svg>
